<?xml version="1.0" encoding="UTF-8"?>
<svg width="391px" height="422px" viewBox="0 0 391 422" version="1.1" xmlns="http://www.w3.org/2000/svg" xmlns:xlink="http://www.w3.org/1999/xlink">
    <!-- Generator: Sketch 48.2 (47327) - http://www.bohemiancoding.com/sketch -->
    <title>Untitled</title>
    <desc>Created with Sketch.</desc>
    <defs></defs>
    <g id="Page-1" stroke="none" stroke-width="1" fill="none" fill-rule="evenodd">
        <g id="Flag_of_Canada" fill="#FF0000" fill-rule="nonzero">
            <path d="M195.30478,0 L161.19166,63.62529 C157.3208,70.5403 150.38539,69.89892 143.44997,66.03667 L118.75298,53.24809 L137.16003,150.9752 C141.03089,168.82939 128.61144,168.82939 122.48238,161.10955 L79.38133,112.85856 L72.38395,137.36156 C71.57703,140.57933 68.02914,143.959 62.70647,143.15417 L8.2047,131.69505 L22.51994,183.7398 C25.58445,195.32034 27.97484,200.11508 19.42619,203.16939 L0,212.29964 L93.82127,288.50802 C97.53477,291.38953 99.41098,296.57502 98.08895,301.27012 L89.87759,328.21719 C122.18164,324.49348 151.12657,318.89125 183.44698,315.441 C186.30021,315.13641 191.07686,319.84508 191.05727,323.15158 L186.77703,421.875 L202.48342,421.875 L200.01105,323.3633 C199.99135,320.0568 204.32477,315.13641 207.178,315.441 C239.49841,318.89126 268.44338,324.49348 300.74742,328.21719 L292.53608,301.27012 C291.21405,296.57502 293.09025,291.38953 296.80375,288.50802 L390.625,212.29964 L371.19883,203.16939 C362.65016,200.11508 365.04055,195.32034 368.10506,183.7398 L382.42033,131.69505 L327.91853,143.15417 C322.59586,143.959 319.04797,140.57933 318.24103,137.36156 L311.24366,112.85856 L268.14263,161.10955 C262.01355,168.82939 249.59409,168.82939 253.46495,150.9752 L271.87197,53.24809 L247.17503,66.03667 C240.23944,69.89892 233.3042,70.5403 229.43333,63.62529" id="Shape"></path>
        </g>
    </g>
</svg>